PathFileType	4	(X/Y/Z)	C:/Users/opensim2020/Desktop/walking_exp_matlab/subject03_walking15_straight_04.trc	
DataRate	CameraRate	NumFrames	NumMarkers	Units	OrigDataRate	OrigDataStartFrame	OrigNumFrames	
100.00	100.00	9	47	mm	100.00	2184	182	
Frame#	Time	LFHD			RFHD			LBHD			RBHD			C7			T10			CLAV			STRN			RBAK			LSHO			LUPA			LELB			LFRM			LWRA			LWRB			LFIN			RSHO			RUPA			RELB			RFRM			RWRA			RWRB			RFIN			LASI			RASI			LPSI			RPSI			LTHI			LKNE			LTIB			LANK			LHEE			LTOE			RTHI			RKNE			RTIB			RANK			RHEE			RTOE			*39			*40			*41			*42			*43			*44			*45			*46			
		X1	Y1	Z1	X2	Y2	Z2	X3	Y3	Z3	X4	Y4	Z4	X5	Y5	Z5	X6	Y6	Z6	X7	Y7	Z7	X8	Y8	Z8	X9	Y9	Z9	X10	Y10	Z10	X11	Y11	Z11	X12	Y12	Z12	X13	Y13	Z13	X14	Y14	Z14	X15	Y15	Z15	X16	Y16	Z16	X17	Y17	Z17	X18	Y18	Z18	X19	Y19	Z19	X20	Y20	Z20	X21	Y21	Z21	X22	Y22	Z22	X23	Y23	Z23	X24	Y24	Z24	X25	Y25	Z25	X26	Y26	Z26	X27	Y27	Z27	X28	Y28	Z28	X29	Y29	Z29	X30	Y30	Z30	X31	Y31	Z31	X32	Y32	Z32	X33	Y33	Z33	X34	Y34	Z34	X35	Y35	Z35	X36	Y36	Z36	X37	Y37	Z37	X38	Y38	Z38	X39	Y39	Z39	X40	Y40	Z40	X41	Y41	Z41	X42	Y42	Z42	X43	Y43	Z43	X44	Y44	Z44	X45	Y45	Z45	X46	Y46	Z46	X47	Y47	Z47	

23	0.220	-950.11511	803.27216	1600.80676	-1082.21094	811.56946	1611.46436	-947.91498	934.27179	1565.38025	-1078.47473	937.00574	1574.89539	-1010.95959	971.48340	1400.20947	-1009.83142	990.37689	1084.38928	-1018.49170	847.66205	1327.60327	-1014.26233	793.86108	1166.42126	-1098.19116	1020.29395	1218.44031	-861.12720	891.83099	1364.56274	-790.42804	865.69257	1173.00037	-787.60687	823.11090	1058.75269	-817.35742	731.26508	979.45752	-879.25580	649.59619	915.02325	-828.74420	658.67810	892.38354	-858.38147	590.85400	855.81818	-1174.83289	907.88110	1350.97693	-1247.20435	935.79510	1130.87280	-1261.21851	936.55426	1017.62939	-1266.61060	945.05127	880.74634	-1235.66748	931.33337	779.57037	-1278.21082	965.63385	782.60760	-1267.15674	962.83350	706.12616	-902.02515	822.49030	916.90863	-1137.05469	811.86011	941.29370	-955.66718	981.57587	941.78961	-1102.46533	975.67035	959.79120	-867.70343	913.71967	614.38922	-896.35229	945.18469	438.01511	-906.73969	1106.37585	314.31631	-951.13898	1253.74133	170.80649	-991.50372	1297.92822	186.84248	-984.81909	1208.99890	29.52873	-1187.54834	802.30359	648.60303	-1142.24658	743.33826	481.61447	-1159.28601	760.24896	286.88443	-1121.98621	773.25671	69.48235	-1080.26648	824.07605	35.81862	-1085.88867	635.32513	32.51927	-990.32996	884.78491	1669.59583																					 
24	0.230	-950.26605	790.95032	1602.15991	-1082.39465	799.05597	1612.79065	-948.28040	921.76086	1566.20557	-1078.89001	924.34320	1575.70862	-1011.77856	958.57910	1401.07910	-1011.28790	976.89374	1085.53101	-1018.88550	834.36542	1328.69495	-1014.58258	780.51166	1167.55811	-1099.45605	1006.24292	1219.86377	-862.05292	879.43188	1365.66882	-791.38690	854.74445	1174.05798	-788.43774	813.88153	1059.24768	-817.09326	722.74237	978.44165	-878.11871	641.62207	912.63843	-827.67145	651.40240	890.19592	-856.62109	583.67920	852.46167	-1175.43616	893.46753	1352.60852	-1248.55994	919.96008	1132.73511	-1262.80359	919.70105	1019.39264	-1268.17261	926.08270	882.39423	-1237.20190	910.93475	781.44537	-1279.91028	945.20099	784.06134	-1268.86011	941.47559	707.63654	-902.74091	809.47577	918.15033	-1137.58008	798.00861	942.54639	-957.26056	968.62524	942.71765	-1104.06750	961.44965	960.91772	-867.81445	894.92438	613.42694	-895.71942	921.32739	436.39450	-906.84412	1084.25720	316.87711	-949.66205	1234.47070	176.97935	-990.03644	1276.08179	199.13397	-984.99139	1203.77527	33.24428	-1188.23547	791.20557	649.14319	-1142.66101	735.33386	480.50101	-1159.03809	755.90179	286.32611	-1121.46399	772.90118	69.52570	-1079.83179	824.18726	36.19738	-1085.46631	635.08472	32.35539	-991.95093	871.57721	1672.47375																					 
25	0.240	-950.28070	778.63202	1603.60986	-1082.40515	786.49951	1614.22229	-948.54523	909.41486	1567.15918	-1079.19250	911.64832	1576.56555	-1012.65991	945.63861	1401.97217	-1013.28607	963.58185	1086.67615	-1019.11670	821.41193	1329.93933	-1014.71021	767.38177	1168.62646	-1101.03870	992.25330	1221.23975	-862.85089	867.20227	1366.57983	-792.27130	843.79834	1174.82910	-789.00537	804.66724	1059.43738	-816.57404	714.44189	976.99396	-876.69763	633.50012	909.88269	-826.43292	644.46704	887.51007	-854.65430	577.07959	848.39624	-1176.10999	878.89264	1354.09509	-1249.89807	903.87134	1134.38977	-1264.62830	902.73297	1020.96851	-1269.76672	906.96747	883.93365	-1238.70776	890.44159	783.16547	-1281.35925	924.56335	785.36859	-1270.63330	919.43640	708.96429	-902.86243	797.03662	919.24554	-1137.85583	784.16443	942.99390	-959.10364	956.22119	943.49023	-1105.94495	947.45471	961.82404	-867.89246	876.39874	612.57025	-895.19714	896.58484	434.83801	-905.77423	1060.84900	318.85599	-948.69574	1214.32581	184.02567	-988.68958	1252.24121	211.33878	-985.45758	1198.12183	37.88678	-1188.72656	781.29602	649.27277	-1143.25183	728.15198	479.47687	-1159.09998	752.07526	286.03125	-1121.11633	772.61554	69.54079	-1079.62781	824.10028	36.26305	-1085.20728	634.93018	32.23647	-990.30658	860.70044	1671.99316																					 
26	0.250	-950.23633	766.27875	1605.02930	-1082.34729	773.91650	1615.72510	-948.84552	896.80267	1567.99805	-1079.43213	898.91864	1577.54028	-1013.74121	932.73090	1402.99426	-1015.71844	950.39832	1087.78467	-1019.27612	808.27979	1331.01990	-1014.63843	754.45471	1169.68054	-1103.02417	978.45160	1222.58569	-863.45111	855.23676	1367.42065	-792.99994	833.00690	1175.36694	-789.34991	795.48364	1059.33240	-815.89087	706.28668	975.17334	-874.50201	625.44629	906.61554	-824.92059	638.55933	884.28601	-852.37427	571.01703	843.66351	-1176.79517	864.07385	1355.46069	-1251.62207	887.68854	1135.64246	-1266.50818	885.46790	1022.36639	-1271.44067	887.54840	885.34338	-1240.03748	869.46539	784.83325	-1282.79456	903.65619	786.47247	-1272.35791	897.00769	710.34607	-902.53656	785.02179	920.44977	-1137.89001	770.44543	942.96619	-960.93445	944.17053	943.97302	-1107.80933	933.93427	962.64996	-867.75055	858.17780	612.08008	-894.47620	871.24310	433.53711	-904.52386	1035.74414	320.10904	-948.15680	1192.65698	191.00484	-987.80487	1226.54053	222.16042	-986.56073	1189.16052	43.97236	-1189.18835	772.40265	648.92749	-1143.95386	721.52069	478.57303	-1159.58386	748.25952	285.75714	-1121.08398	772.43866	69.59209	-1079.66821	824.39282	36.83550	-1085.05505	634.85083	32.10551	-990.76727	848.69159	1673.27087																					 
27	0.260	-950.06512	753.94360	1606.40210	-1082.23035	761.34436	1617.23389	-949.00354	884.33417	1568.90759	-1079.54736	886.06952	1578.58862	-1014.93201	919.65399	1404.08435	-1018.24432	937.19781	1088.89917	-1019.31323	795.50403	1332.29492	-1014.49066	741.67780	1170.68384	-1105.29321	964.63861	1223.86902	-863.84613	843.48999	1368.22021	-793.59937	822.54974	1175.62415	-789.34174	787.25214	1059.23315	-814.99359	698.36407	972.91986	-872.39307	618.25018	902.73932	-823.27789	632.11139	880.53137	-849.86584	565.48322	838.33221	-1177.48938	849.17505	1356.73511	-1253.13831	870.97180	1136.78784	-1268.34155	867.77234	1023.58380	-1272.99585	867.84753	886.61603	-1241.47339	848.68768	786.31482	-1284.18811	882.34827	787.43262	-1274.05127	874.16052	711.67365	-902.25964	773.34839	921.69122	-1137.79639	756.77155	942.53705	-962.70135	932.34375	944.27142	-1109.47034	920.63849	963.60693	-867.44714	840.33252	612.11078	-893.39392	845.77032	432.93506	-903.47559	1010.03143	321.14706	-947.95770	1170.26392	197.55266	-987.26794	1200.93530	231.02028	-986.84192	1176.30566	49.41733	-1189.52759	764.19214	648.76953	-1144.69373	715.44147	477.74808	-1160.04419	744.38574	285.33035	-1121.14246	772.44495	69.73389	-1079.86682	824.43201	37.11196	-1085.02747	634.80591	32.00085	-992.15497	835.13214	1676.01965																					 
28	0.270	-949.84851	741.59479	1607.60974	-1081.96350	748.76569	1618.74988	-949.12970	871.79785	1569.66492	-1079.70764	873.43579	1579.68225	-1016.18115	906.63306	1405.23425	-1020.63849	924.20471	1090.06873	-1019.30438	782.63660	1333.39880	-1014.28156	729.07318	1171.58093	-1107.94580	950.98932	1225.15723	-864.06818	831.92816	1369.03027	-794.18024	812.19092	1175.97058	-789.52521	778.18115	1058.81934	-813.99945	690.63617	970.29224	-870.12317	611.24292	898.18579	-821.32849	626.96027	876.24982	-847.07556	560.60950	832.42578	-1178.10083	834.19202	1357.94080	-1254.40393	853.64856	1137.89441	-1270.16968	849.50397	1024.53687	-1274.38342	847.61511	887.57001	-1242.75696	827.33276	787.96027	-1285.57043	860.71564	788.30524	-1275.59436	850.82019	712.92603	-901.30145	762.40454	922.60553	-1137.99158	743.37415	941.90320	-964.22144	920.62427	944.53284	-1110.76807	907.80865	964.76593	-867.05072	822.62720	612.67316	-892.08002	820.53540	433.17404	-902.54999	984.15649	322.19775	-948.05670	1147.49634	203.23445	-987.15222	1177.40625	237.48518	-986.71136	1156.59241	54.53842	-1189.67065	756.01587	648.81628	-1145.46399	709.73816	477.09500	-1160.49841	740.91071	284.95996	-1121.43323	772.27686	69.72939	-1080.22815	824.29553	37.25863	-1085.09631	634.79242	31.91518	-991.82043	822.96942	1676.63745																					 
29	0.280	-949.62012	729.18140	1608.77173	-1081.71118	736.17865	1620.17725	-949.23315	859.31219	1570.43555	-1079.74756	860.62219	1580.70801	-1017.36877	893.64990	1406.44141	-1022.63776	911.49310	1091.20496	-1019.23737	769.80713	1334.32849	-1013.96704	716.57581	1172.40259	-1110.74597	937.30792	1226.42175	-864.16351	820.47314	1369.83899	-794.68134	802.21075	1176.29224	-789.78857	769.04211	1058.42981	-812.89923	683.18646	967.46246	-867.25989	604.82990	893.36481	-819.07074	621.92200	871.59821	-843.88989	556.44110	826.07257	-1178.33582	818.96857	1358.80713	-1255.57788	835.97095	1138.77234	-1271.56348	830.79559	1025.57715	-1275.70776	827.11774	888.64673	-1243.62170	805.81104	789.43103	-1286.88489	838.72845	789.18420	-1277.17883	827.06293	714.06451	-900.63635	751.56970	923.56812	-1138.06238	730.32788	941.81909	-965.19244	908.90002	944.91559	-1111.52185	895.32892	966.18298	-866.43774	804.73706	613.63446	-890.64587	795.49493	434.20251	-902.08563	958.83911	324.05197	-948.65405	1124.49707	207.87842	-987.53522	1155.90076	241.67249	-987.06995	1130.21619	59.16333	-1190.34326	747.17578	648.98401	-1146.06030	704.48230	476.59988	-1160.91162	738.12897	284.76706	-1121.73596	772.08850	69.87868	-1080.58276	823.96411	37.37890	-1085.16125	634.76666	31.84834	-991.60638	810.55463	1678.30920																					 
30	0.290	-949.28223	716.83954	1609.82251	-1081.33130	723.56378	1621.50391	-949.30701	846.86591	1571.15137	-1079.81506	848.02258	1581.73438	-1018.44452	880.71173	1407.48254	-1024.18738	899.12561	1092.42322	-1018.96875	757.05621	1335.28186	-1013.61536	704.21161	1173.11987	-1113.74939	923.77283	1227.54138	-864.09454	809.12897	1370.55420	-795.12024	792.47656	1176.42163	-790.15417	759.88641	1058.11584	-811.67883	676.05884	964.48914	-864.57379	599.24811	887.93732	-816.49176	617.59937	866.73444	-840.40735	552.97021	819.39038	-1178.57849	803.98920	1359.72668	-1256.76245	818.02313	1139.53528	-1272.60657	811.68176	1026.65955	-1276.92871	806.22516	889.70959	-1244.53552	784.11127	790.79028	-1288.24585	816.34613	790.09644	-1278.61096	803.01178	715.39099	-900.58081	739.78455	924.64227	-1138.21082	717.82483	942.23804	-965.60150	897.02661	945.46722	-1111.87610	883.16528	967.73285	-865.85205	786.25531	614.89319	-889.37738	770.75348	435.95059	-901.91852	934.10193	327.02866	-949.23938	1100.13672	211.25050	-988.24182	1134.69531	243.28917	-987.08679	1099.13391	62.26162	-1190.24158	738.26385	649.72382	-1146.49194	699.60736	476.21695	-1161.20105	735.92816	284.71378	-1121.79858	772.02979	70.09930	-1080.41565	824.22144	38.03730	-1085.15808	634.70618	31.81415	-991.07190	798.38495	1678.44836																					 
31	0.300	-948.86774	704.45404	1610.84424	-1081.01685	710.95697	1622.75476	-949.34003	834.33911	1571.87427	-1079.82031	835.30206	1582.71277	-1019.33252	868.00574	1408.55981	-1025.17383	886.90436	1093.67200	-1018.66431	744.50653	1336.22144	-1013.19379	691.96790	1173.87122	-1116.31848	910.10144	1228.79102	-863.92493	797.75330	1371.23511	-795.54602	783.07800	1176.48462	-790.52637	750.82959	1057.82837	-810.36584	669.27979	961.37408	-861.46899	594.07379	882.29095	-813.66058	613.85437	861.77448	-836.56244	550.26196	812.45654	-1178.70190	789.16724	1360.67383	-1257.30420	799.63654	1140.36804	-1273.47083	792.21802	1027.63428	-1277.95667	785.01886	890.82709	-1244.93225	762.97961	791.89996	-1289.50293	793.61945	791.08087	-1279.83765	778.71417	716.96368	-900.57776	728.39740	925.59595	-1138.54724	705.72913	942.97650	-965.58044	885.01569	946.24243	-1111.98035	871.14636	969.10052	-865.39447	767.26959	616.41101	-888.19458	746.33643	438.17807	-901.90552	909.35388	330.15723	-950.16193	1074.97742	213.25627	-989.58575	1112.53711	242.60794	-986.53143	1065.43176	63.46484	-1190.39990	729.14606	650.07245	-1146.86548	695.05219	475.72226	-1161.41577	734.03992	284.69727	-1121.70703	771.90826	70.28978	-1080.26758	824.20227	38.48352	-1085.10193	634.65637	31.78422	-989.41504	787.28900	1677.87537																					 
